<mxfile host="app.diagrams.net" modified="2023-12-08T12:29:52.424Z" agent="Mozilla/5.0 (Windows NT 10.0; Win64; x64) AppleWebKit/537.36 (KHTML, like Gecko) Chrome/120.0.0.0 Safari/537.36" etag="H2XopPjhTF_FnVuwkZ6c" version="22.1.7" type="github">
  <diagram name="Page-1" id="FAYloSDTTYDVObzhy5Y4">
    <mxGraphModel dx="792" dy="744" grid="1" gridSize="10" guides="1" tooltips="1" connect="1" arrows="1" fold="1" page="1" pageScale="1" pageWidth="850" pageHeight="1100" background="#ffffff" math="0" shadow="0">
      <root>
        <mxCell id="0" />
        <mxCell id="1" parent="0" />
        <mxCell id="4K18NPuj7CFa846aqN2v-4" value="" style="rounded=0;whiteSpace=wrap;html=1;fillColor=#bac8d3;strokeColor=#23445d;" parent="1" vertex="1">
          <mxGeometry x="130" y="435" width="310" height="230" as="geometry" />
        </mxCell>
        <mxCell id="4K18NPuj7CFa846aqN2v-17" value="Node" style="text;html=1;strokeColor=none;fillColor=none;align=center;verticalAlign=middle;whiteSpace=wrap;rounded=0;" parent="1" vertex="1">
          <mxGeometry x="345" y="427" width="60" height="30" as="geometry" />
        </mxCell>
        <mxCell id="4K18NPuj7CFa846aqN2v-19" value="kubelet" style="sketch=0;html=1;dashed=0;whitespace=wrap;fillColor=#2875E2;strokeColor=#ffffff;points=[[0.005,0.63,0],[0.1,0.2,0],[0.9,0.2,0],[0.5,0,0],[0.995,0.63,0],[0.72,0.99,0],[0.5,1,0],[0.28,0.99,0]];verticalLabelPosition=bottom;align=center;verticalAlign=top;shape=mxgraph.kubernetes.icon;prIcon=kubelet;spacing=-4;fontSize=11;" parent="1" vertex="1">
          <mxGeometry x="340" y="470" width="70" height="70" as="geometry" />
        </mxCell>
        <mxCell id="4K18NPuj7CFa846aqN2v-20" value="k-proxy" style="sketch=0;html=1;dashed=0;whitespace=wrap;fillColor=#2875E2;strokeColor=#ffffff;points=[[0.005,0.63,0],[0.1,0.2,0],[0.9,0.2,0],[0.5,0,0],[0.995,0.63,0],[0.72,0.99,0],[0.5,1,0],[0.28,0.99,0]];verticalLabelPosition=bottom;align=center;verticalAlign=top;shape=mxgraph.kubernetes.icon;prIcon=k_proxy;fontSize=11;spacing=-4;" parent="1" vertex="1">
          <mxGeometry x="340" y="568" width="70" height="70" as="geometry" />
        </mxCell>
        <mxCell id="4K18NPuj7CFa846aqN2v-34" value="" style="endArrow=none;html=1;rounded=0;entryX=0.971;entryY=0.471;entryDx=0;entryDy=0;entryPerimeter=0;" parent="1" edge="1">
          <mxGeometry width="50" height="50" relative="1" as="geometry">
            <mxPoint x="464.03" y="499.44000000000005" as="sourcePoint" />
            <mxPoint x="405" y="499.4100000000001" as="targetPoint" />
          </mxGeometry>
        </mxCell>
        <mxCell id="4K18NPuj7CFa846aqN2v-35" value="" style="endArrow=none;html=1;rounded=0;entryX=0.971;entryY=0.471;entryDx=0;entryDy=0;entryPerimeter=0;" parent="1" edge="1">
          <mxGeometry width="50" height="50" relative="1" as="geometry">
            <mxPoint x="464" y="600" as="sourcePoint" />
            <mxPoint x="405" y="600" as="targetPoint" />
          </mxGeometry>
        </mxCell>
        <mxCell id="4K18NPuj7CFa846aqN2v-36" value="" style="endArrow=none;html=1;rounded=0;" parent="1" edge="1">
          <mxGeometry width="50" height="50" relative="1" as="geometry">
            <mxPoint x="464" y="600" as="sourcePoint" />
            <mxPoint x="464" y="400" as="targetPoint" />
          </mxGeometry>
        </mxCell>
        <mxCell id="3l28P4qMm5tEQ46TuTvp-1" value="" style="endArrow=classic;html=1;rounded=0;" parent="1" edge="1">
          <mxGeometry width="50" height="50" relative="1" as="geometry">
            <mxPoint x="464" y="300" as="sourcePoint" />
            <mxPoint x="464" y="410" as="targetPoint" />
          </mxGeometry>
        </mxCell>
        <mxCell id="3l28P4qMm5tEQ46TuTvp-2" value="kube-apiserver" style="text;html=1;strokeColor=none;fillColor=none;align=center;verticalAlign=middle;whiteSpace=wrap;rounded=0;rotation=-90;" parent="1" vertex="1">
          <mxGeometry x="396" y="336" width="120" height="30" as="geometry" />
        </mxCell>
        <mxCell id="CQpjlojAlUkrmzfvVUWV-9" value="" style="verticalLabelPosition=bottom;verticalAlign=top;html=1;shape=mxgraph.basic.polygon;polyCoords=[[0,0.25],[0.5,0],[1,0.25],[1,0.75],[0.5,1],[0,0.75],[0,0.25]];polyline=1;fillColor=default;perimeter=rectanglePerimeter;" vertex="1" parent="1">
          <mxGeometry x="160" y="451" width="140" height="160" as="geometry" />
        </mxCell>
        <mxCell id="CQpjlojAlUkrmzfvVUWV-1" value="" style="image;sketch=0;aspect=fixed;html=1;points=[];align=center;fontSize=12;image=img/lib/mscae/Docker.svg;" vertex="1" parent="1">
          <mxGeometry x="205" y="591" width="50" height="41" as="geometry" />
        </mxCell>
        <mxCell id="CQpjlojAlUkrmzfvVUWV-12" value="" style="endArrow=none;dashed=1;html=1;rounded=0;entryX=1.007;entryY=0.394;entryDx=0;entryDy=0;entryPerimeter=0;exitX=0.005;exitY=0.63;exitDx=0;exitDy=0;exitPerimeter=0;" edge="1" parent="1" source="4K18NPuj7CFa846aqN2v-19" target="CQpjlojAlUkrmzfvVUWV-9">
          <mxGeometry width="50" height="50" relative="1" as="geometry">
            <mxPoint x="430" y="480" as="sourcePoint" />
            <mxPoint x="480" y="430" as="targetPoint" />
          </mxGeometry>
        </mxCell>
        <mxCell id="CQpjlojAlUkrmzfvVUWV-13" value="Pod" style="ellipse;whiteSpace=wrap;html=1;aspect=fixed;fillColor=#D5E8D4;" vertex="1" parent="1">
          <mxGeometry x="180" y="485" width="40" height="40" as="geometry" />
        </mxCell>
        <mxCell id="CQpjlojAlUkrmzfvVUWV-14" value="Pod" style="ellipse;whiteSpace=wrap;html=1;aspect=fixed;fillColor=#D5E8D4;" vertex="1" parent="1">
          <mxGeometry x="210" y="540" width="40" height="40" as="geometry" />
        </mxCell>
        <mxCell id="CQpjlojAlUkrmzfvVUWV-15" value="Pod" style="ellipse;whiteSpace=wrap;html=1;aspect=fixed;fillColor=#D5E8D4;" vertex="1" parent="1">
          <mxGeometry x="240" y="485" width="40" height="40" as="geometry" />
        </mxCell>
      </root>
    </mxGraphModel>
  </diagram>
</mxfile>
